<svg version="1.1" xmlns="http://www.w3.org/2000/svg" xmlns:xlink="http://www.w3.org/1999/xlink" width="24px" height="24px" viewBox="0,0,256,256"><g fill="white" fill-rule="nonzero" stroke="none" stroke-width="1" stroke-linecap="butt" stroke-linejoin="miter" stroke-miterlimit="10" stroke-dasharray="" stroke-dashoffset="0" font-family="none" font-weight="none" font-size="none" text-anchor="none" style="mix-blend-mode: normal"><g transform="scale(10.66667,10.66667)"><path d="M12,2c-5.523,0 -10,4.477 -10,10c0,5.523 4.477,10 10,10c5.523,0 10,-4.477 10,-10c0,-5.523 -4.477,-10 -10,-10zM16,13h-5.586l1.586,1.586c0.39,0.39 0.39,1.024 0,1.414v0c-0.39,0.39 -1.024,0.39 -1.414,0l-3.293,-3.293c-0.391,-0.391 -0.391,-1.024 0,-1.414l3.293,-3.293c0.39,-0.39 1.024,-0.39 1.414,0v0c0.39,0.39 0.39,1.024 0,1.414l-1.586,1.586h5.586c0.552,0 1,0.448 1,1v0c0,0.552 -0.448,1 -1,1z"></path></g></g></svg>