<svg width="799" height="778" viewBox="0 0 799 778" fill="none" xmlns="http://www.w3.org/2000/svg">
<path d="M676.165 461.254L653.208 696.761C652.541 703.599 645.337 707.744 639.091 704.883L455.481 620.783C448.542 617.605 447.578 608.138 453.734 603.626L660.3 452.218C667.271 447.109 677.003 452.652 676.165 461.254Z" stroke="#FFCE00" stroke-width="6"/>
<path d="M4.27902 379.53L55.4729 216.069C56.9318 211.411 61.5408 208.486 66.3769 209.151L268.825 236.965C274.767 237.781 278.659 243.609 277.136 249.411L229.925 429.261C228.568 434.43 223.386 437.619 218.159 436.5L11.7281 392.297C5.97074 391.064 2.51929 385.149 4.27902 379.53Z" stroke="#A200FF" stroke-width="6"/>
<circle cx="604" cy="90" r="87" stroke="#FF0075" stroke-width="6"/>
</svg>
